<svg width="30" height="30" viewBox="0 0 0.75 0.75" xmlns="http://www.w3.org/2000/svg"><path fill="#555" fill-rule="evenodd" d="M.375.525a.075.075 0 1 1 0 .15.075.075 0 0 1 0-.15m0-.145a.21.21 0 0 1 .18.098.026.026 0 0 1-.044.028.17.17 0 0 0-.136-.073.17.17 0 0 0-.136.074.026.026 0 0 1-.044-.028.21.21 0 0 1 .18-.099m0-.148c.115 0 .22.052.288.14a.026.026 0 0 1-.041.032.32.32 0 0 0-.247-.119.3.3 0 0 0-.245.119.026.026 0 1 1-.041-.032.36.36 0 0 1 .286-.14m0-.157q.22.001.368.162a.026.026 0 1 1-.039.035.44.44 0 0 0-.329-.144.45.45 0 0 0-.33.146.026.026 0 1 1-.038-.036.5.5 0 0 1 .368-.163"/></svg>