<svg width="201" height="135" viewBox="0 0 201 135" fill="none" xmlns="http://www.w3.org/2000/svg"><path d="M44.628 13.258h-1.916v41.208h1.916z" fill="#E0E0E0"/><path d="M42.396 13.577H14.938a.027.027 0 0 0-.027.027v40.891c0 .015.012.027.027.027h27.457a.03.03 0 0 0 .026-.027V13.604a.03.03 0 0 0-.026-.027" fill="#F5F5F5"/><path d="M42.712 54.841H14.62q-.006 0-.011-.002a.03.03 0 0 1-.015-.016l-.001-.011v-41.54a.024.024 0 0 1 .016-.026q.005-.002.01-.001h28.093a.03.03 0 0 1 .02.007.03.03 0 0 1 .009.02v41.54a.03.03 0 0 1-.009.02.03.03 0 0 1-.02.01m-27.454-.63h26.818a.03.03 0 0 0 .03-.03V13.924q0-.006-.002-.011l-.007-.01-.01-.005-.01-.001h-26.82a.03.03 0 0 0-.02.007.02.02 0 0 0-.006.02v40.25l-.002.014a.03.03 0 0 0 .015.022z" fill="#EBEBEB"/><path d="M39.673 16.102H17.707a.03.03 0 0 0-.026.026v35.813c0 .015.012.027.026.027h21.966a.03.03 0 0 0 .026-.027V16.128a.03.03 0 0 0-.026-.026" fill="#fff"/><path d="M34.832 26.27h-12.33a.016.016 0 0 0-.017.016v14.458q.002.016.016.016h12.331a.016.016 0 0 0 .016-.016V26.286a.016.016 0 0 0-.016-.017" fill="#EBEBEB"/><path d="M33.87 38.986c.016.048-.595.316-1.756.18a4.3 4.3 0 0 1-1.975-.804 4.02 4.02 0 0 1-1.533-2.412 3.47 3.47 0 0 1 1.174-3.297 3.1 3.1 0 0 1 .89-.536 2.3 2.3 0 0 1 1.112-.126c.413.04.802.21 1.112.485a1.45 1.45 0 0 1 .437 1.295 2.1 2.1 0 0 1-.611 1.112 4 4 0 0 1-.93.686 5.1 5.1 0 0 1-2.222.635 4.44 4.44 0 0 1-2.369-.536 4.3 4.3 0 0 1-1.742-1.806 3.7 3.7 0 0 1-.313-2.53 3.75 3.75 0 0 1 1.34-2.085c.332-.258.712-.45 1.117-.563a2.8 2.8 0 0 1 1.26-.04c.44.085.84.31 1.142.643.287.343.445.775.447 1.222.003.407-.1.808-.297 1.163a3.1 3.1 0 0 1-.705.847 4.75 4.75 0 0 1-1.753.93 4.5 4.5 0 0 1-1.841.142 3.8 3.8 0 0 1-1.608-.614 3.48 3.48 0 0 1-1.53-2.425 2.92 2.92 0 0 1 .565-2.08c.267-.37.63-.66 1.05-.838.29-.11.454-.108.462-.078s-.132.102-.365.268c-.33.23-.604.53-.804.879a2.58 2.58 0 0 0-.332 1.777 2.9 2.9 0 0 0 1.361 1.905 3.34 3.34 0 0 0 2.809.268 3.95 3.95 0 0 0 1.404-.804 1.72 1.72 0 0 0 .657-1.316.946.946 0 0 0-.844-.935 1.8 1.8 0 0 0-.804.038c-.277.084-.536.22-.764.399-.482.39-.82.93-.96 1.533a2.68 2.68 0 0 0 .236 1.838 3.34 3.34 0 0 0 1.34 1.383c.56.307 1.193.455 1.83.426a4.2 4.2 0 0 0 1.799-.493c.262-.133.504-.304.718-.506a1.2 1.2 0 0 0 .365-.595.52.52 0 0 0-.148-.477 1.07 1.07 0 0 0-.595-.268 1.5 1.5 0 0 0-.7.059 2.3 2.3 0 0 0-.653.359 2.71 2.71 0 0 0-.994 2.522c.133.812.55 1.55 1.176 2.085a4.2 4.2 0 0 0 1.694.847c1.013.27 1.643.15 1.65.238M188.12 16.619h-21.885v22.815h21.885z" fill="#E0E0E0"/><path d="M186.638 16.619h-21.885v22.815h21.885z" fill="#FAFAFA"/><path d="M186.646 39.442h-21.898V16.614h21.898zm-21.885-.016h21.872v-22.8h-21.872z" fill="#E0E0E0"/><path d="M183.699 19.688h-16.003v16.68h16.003z" fill="#fff"/><path d="M167.696 36.478a2.5 2.5 0 0 1-.394.458c-.268.268-.617.635-1.019 1.032-.402.396-.772.75-1.045 1a2.5 2.5 0 0 1-.464.385 2.7 2.7 0 0 1 .394-.455c.268-.268.617-.638 1.019-1.035s.774-.75 1.048-1.002q.205-.222.461-.383m16.002-.04q.251.17.459.393c.268.255.635.614 1.031 1.019.397.404.751.772 1 1.045q.22.208.386.461a2.6 2.6 0 0 1-.458-.391c-.268-.268-.636-.617-1.032-1.021a52 52 0 0 1-1.003-1.046 2.5 2.5 0 0 1-.383-.46m-.046-16.708q.175-.25.397-.458c.268-.268.614-.635 1.016-1.032.402-.396.774-.75 1.045-1a2.5 2.5 0 0 1 .464-.385 2.6 2.6 0 0 1-.394.458c-.268.268-.614.635-1.019 1.032-.404.396-.777.758-1.045 1.002a2.4 2.4 0 0 1-.464.383m-15.999.04a2.4 2.4 0 0 1-.461-.399c-.268-.268-.635-.613-1.029-1.015a60 60 0 0 1-1.003-1.046 2.7 2.7 0 0 1-.386-.463q.254.169.459.394c.268.268.635.613 1.034 1.018s.751.775 1.002 1.048q.217.211.384.464" fill="#E0E0E0"/><path d="M183.652 36.368v-1.214c0-.79 0-1.94-.016-3.401 0-2.921-.018-7.084-.032-12.06l.062.061h-15.954l.069-.07v16.681l-.061-.062 11.553.033 3.246.013h1.136-1.131l-3.232.016-11.594.03h-.061V19.583h16.093v.062c0 4.998-.021 9.173-.029 12.105 0 1.453 0 2.597-.016 3.385v1.115a.4.4 0 0 1-.033.118" fill="#E0E0E0"/><path d="M178.365 25.356h-5.339v5.338h5.339z" fill="#EBEBEB"/><path d="M188.12 47.412h-21.885v22.815h21.885z" fill="#E0E0E0"/><path d="M186.638 47.412h-21.885v22.815h21.885z" fill="#FAFAFA"/><path d="M186.646 70.232h-21.898V47.404h21.898zm-21.885 0h21.872V47.417h-21.872z" fill="#E0E0E0"/><path d="M183.699 50.478h-16.003v16.68h16.003z" fill="#fff"/><path d="M167.696 67.268a2.6 2.6 0 0 1-.394.461c-.268.268-.617.633-1.019 1.03-.402.396-.772.75-1.045 1.002a2.4 2.4 0 0 1-.464.383 3 3 0 0 1 .394-.456c.268-.268.617-.635 1.019-1.034.402-.4.774-.75 1.048-1.003q.208-.217.461-.383m16.002-.04q.251.171.459.394c.268.268.635.616 1.031 1.018a37 37 0 0 1 1 1.046q.221.208.386.463a2.7 2.7 0 0 1-.458-.394 46 46 0 0 1-1.032-1.018 40 40 0 0 1-1.003-1.048 2.4 2.4 0 0 1-.383-.461m-.046-16.708q.175-.25.397-.457c.268-.268.614-.636 1.016-1.032.402-.397.774-.748 1.045-1q.209-.22.464-.386a2.5 2.5 0 0 1-.394.458c-.268.268-.614.636-1.019 1.032-.404.397-.777.753-1.045 1.003a2.4 2.4 0 0 1-.464.383m-15.999.043a2.6 2.6 0 0 1-.461-.397 52 52 0 0 1-2.032-2.06 2.7 2.7 0 0 1-.386-.464q.254.168.459.393c.268.255.635.617 1.034 1.019s.751.775 1.002 1.048q.218.209.384.46" fill="#E0E0E0"/><path d="M183.652 67.158v-1.213c0-.791 0-1.941-.016-3.402 0-2.92-.018-7.083-.032-12.06l.062.062h-15.954l.069-.07v16.68l-.061-.061 11.553.032 3.246.016h1.083-1.056l-3.232.016-11.594.032h-.062V50.376h16.094v.062c0 4.998-.022 9.173-.03 12.105 0 1.456 0 2.6-.016 3.385v1.115a.4.4 0 0 1-.054.115" fill="#E0E0E0"/><path d="M178.365 56.149h-5.339v5.338h5.339zm-42.122-23.745a13.66 13.66 0 0 1-8.812 12.383 13.668 13.668 0 1 1-4.4-26.44 13.64 13.64 0 0 1 13.212 14.057" fill="#EBEBEB"/><path d="M133.368 32.452a10.405 10.405 0 0 1-6.719 9.42 10.41 10.41 0 1 1 .604-19.224 10.405 10.405 0 0 1 6.115 9.804" fill="#EBEBEB"/><path d="M132.996 32.3a1 1 0 0 1-.014-.17c0-.123 0-.286-.019-.492 0-.11 0-.234-.013-.365s-.035-.268-.054-.437a7.5 7.5 0 0 0-.185-1.072 10 10 0 0 0-1.072-2.784 10.403 10.403 0 0 0-13.601-4.232c-.222.11-.434.238-.653.36a5 5 0 0 0-.636.407q-.632.433-1.2.948-.563.544-1.048 1.158a10 10 0 0 0-1.563 2.782 10.14 10.14 0 0 0-.209 6.488 9.9 9.9 0 0 0 1.383 2.878q.443.646.97 1.225.535.551 1.137 1.027.587.467 1.235.85a10.367 10.367 0 0 0 13.848-3.35 10 10 0 0 0 1.246-2.71q.166-.528.255-1.072c.029-.156.061-.298.083-.43.021-.13.024-.267.034-.36l.051-.494a1 1 0 0 1 .025-.166 1 1 0 0 1 0 .169c0 .12-.017.284-.03.493 0 .11-.016.233-.024.364-.008.132-.046.268-.072.437q-.08.544-.236 1.072a9.9 9.9 0 0 1-1.23 2.771 10.46 10.46 0 0 1-7.204 4.722 10.54 10.54 0 0 1-5.497-.616q-.691-.275-1.34-.64-.66-.39-1.262-.864a9.7 9.7 0 0 1-2.144-2.294 10.1 10.1 0 0 1-1.415-2.948 10.36 10.36 0 0 1 .214-6.625c.38-1.027.923-1.986 1.608-2.84q.497-.624 1.072-1.18.583-.525 1.228-.97.308-.232.648-.412c.223-.124.442-.268.667-.368q.676-.324 1.389-.552a10.5 10.5 0 0 1 5.523-.268 10.47 10.47 0 0 1 6.888 5.175 9.7 9.7 0 0 1 1.045 2.825q.126.538.169 1.088c.016.158.037.303.043.44.005.136 0 .254 0 .364v.496a.7.7 0 0 1-.04.172" fill="#E0E0E0"/><path d="m123.573 38.206-.033 1.815-1.608-.03.033-1.763c-1.608-.126-3.131-.654-4.007-1.367l.925-1.96a6.5 6.5 0 0 0 3.119 1.207l.046-2.704c-1.788-.47-3.784-1.102-3.752-3.417.032-1.715 1.302-3.165 3.864-3.412l.032-1.796 1.608.027-.032 1.766a7.3 7.3 0 0 1 3.27 1.043l-.844 1.978a6.6 6.6 0 0 0-2.463-.887l-.049 2.752c1.791.453 3.752 1.088 3.712 3.369-.021 1.696-1.275 3.117-3.821 3.38m-1.493-7.182.04-2.297c-.86.18-1.209.643-1.219 1.177-.011.533.471.881 1.179 1.12m2.715 3.95c0-.565-.453-.882-1.145-1.136l-.04 2.232c.812-.163 1.177-.579 1.185-1.096" fill="#E0E0E0"/><path d="M135.557 44.654a18.92 18.92 0 0 1-17.977 4.173c-5.159-1.506-9.581-5.296-11.632-10.296a17.04 17.04 0 0 1 1.439-15.57c2.975-4.648 8.121-7.69 13.604-8.218 6.88-.665 13.684 2.481 17.452 8.308.56.866 1.951.062 1.389-.804a20.21 20.21 0 0 0-16.525-9.198c-6.076-.126-12.103 2.522-15.96 7.236a18.72 18.72 0 0 0-3.575 16.836c1.622 5.743 6.006 10.366 11.505 12.596 7.236 2.948 15.673 1.313 21.416-3.932.767-.7-.375-1.835-1.136-1.139z" fill="#F5F5F5"/><path d="m134.067 22.518 6.553-4.412v6.67z" fill="#F5F5F5"/><path d="M185.386 125.979c0 .04-38.487.07-85.953.07s-85.963-.03-85.963-.07 38.48-.07 85.963-.07c47.485 0 85.953.032 85.953.07" fill="#263238"/><path d="M109.154 54.844s9.822 2.588 12.928 12.947l-4.162 1.852s-.956-7.207-10.688-10.345c-5.266-1.7-12.24.697-14.169 2.894l-4.687-2.023c3.133-3.45 10.865-8.027 20.778-5.325" fill="#FF725E"/><path d="m124.754 65.18-10.382 3.444 7.968 3.993z" fill="#FF725E"/><path d="m96.9 125.979-36.715-.022c-4.417 0-7.995-3.752-7.995-8.407l.02-96.734c0-4.642 3.585-8.405 8.002-8.402l36.716.021c4.416 0 7.994 3.768 7.994 8.408l-.019 96.748c0 4.628-3.583 8.391-8.002 8.388" fill="#263238"/><path d="M96.89 15.858h-7.118c-.957 0-1.731.85-1.731 1.897v1.348c0 1.048-.775 1.898-1.729 1.898H72.438c-.954 0-1.729-.853-1.729-1.9v-1.362c0-1.048-.774-1.897-1.728-1.897h-8.734c-3.096 0-5.604 2.634-5.604 5.896l-.019 94.419c0 3.251 2.506 5.896 5.598 5.896l36.644.024c3.093 0 5.604-2.635 5.604-5.896l.019-94.42c0-3.266-2.506-5.9-5.599-5.903" fill="#fff"/><path d="M62.383 114.581v2.771a.3.3 0 0 1-.31.316.3.3 0 0 1-.157-.048l-2.179-1.386a.3.3 0 0 1-.14-.257.3.3 0 0 1 .14-.257l2.171-1.396a.3.3 0 0 1 .316-.017.3.3 0 0 1 .159.274m17.9 1.359a1.913 1.913 0 0 1-2.286 1.871 1.91 1.91 0 0 1-1.5-1.502 1.91 1.91 0 1 1 3.786-.369m16.733-1.665h-2.522a.5.5 0 0 0-.5.502v2.529c0 .277.224.502.5.502h2.522a.5.5 0 0 0 .501-.502v-2.529a.5.5 0 0 0-.5-.502" fill="#E0E0E0"/><path d="M67.943 49.955h2.948l-.574-.436 1.306 4.288 2.066 6.807c.158.536.319 1.045.477 1.568a.61.61 0 0 0 .574.436l8.43-.024h1.21c.763 0 .766-1.19 0-1.187l-8.432.022H74.74l.573.434-1.303-4.288-2.068-6.805-.477-1.57a.61.61 0 0 0-.574-.437h-2.948c-.766 0-.766 1.19 0 1.19z" fill="#263238"/><path d="m86.259 51.47-1.667 7.46q-.117.536-.239 1.073l.432-.327-3.61-.035-5.789-.056-1.324-.014.429.327q-1.158-3.693-2.321-7.389l-.327-1.04-.431.563h15.276a.448.448 0 0 0 0-.892H71.412a.45.45 0 0 0-.43.565l2.649 8.429a.46.46 0 0 0 .431.33l3.61.035 5.789.056 1.324.013a.455.455 0 0 0 .429-.327l1.664-7.464.241-1.072c.123-.56-.734-.798-.86-.236" fill="#263238"/><path d="M74.45 51.85c.47 2.72 1.073 5.42 1.537 8.14.096.565.956.324.86-.236-.47-2.723-1.072-5.42-1.536-8.142-.096-.563-.957-.325-.86.238m4.709-.118q.066 4.185.141 8.37c0 .573.9.576.893 0q-.067-4.185-.142-8.37c0-.573-.9-.576-.893 0m4.35 8.472 1.134-7.435.16-1.072a.464.464 0 0 0-.31-.549.453.453 0 0 0-.536.314 4597 4597 0 0 0-1.131 7.434c-.054.354-.11.707-.164 1.072a.464.464 0 0 0 .31.55.45.45 0 0 0 .55-.312z" fill="#263238"/><path d="M72.385 54.643h13.488a.447.447 0 0 0 0-.893H72.385a.448.448 0 0 0 0 .893m1.264 3.13h11.68a.445.445 0 1 0 0-.89h-11.68a.445.445 0 0 0 0 .89m10.726 8.758a1.587 1.587 0 1 0 0-3.173 1.587 1.587 0 0 0 0 3.173m-8.727 0a1.587 1.587 0 1 0 0-3.173 1.587 1.587 0 0 0 0 3.173" fill="#263238"/><path d="M72.607 43.577s-6.526-.22-10.353 5.588l2.23 1.91s1.921-4.26 8.493-4.397c3.559-.073 6.003 2 6.788 3.709l4.033-.07c-1.3-2.704-4.588-6.574-11.191-6.74" fill="#FF725E"/><path d="m61.39 47.273 5.76 4.038-5.231 1.062z" fill="#FF725E"/><path d="M99.525 25.803a.648.648 0 1 1-1.297.006.648.648 0 0 1 1.297-.006m-.649 2.42a.649.649 0 1 0 0-1.297.649.649 0 0 0 0 1.297m0 1.772a.649.649 0 1 0 0-1.297.649.649 0 0 0 0 1.297m-38.618-4.5-2.646 1.983h.673v2.37l1.426.005v-1.775l1.125-.005v1.774h1.378v-2.393l.686-.008z" fill="#263238"/><path d="M102.658 32.345c0 .038-10.793.07-24.102.07s-24.1-.032-24.1-.07c0-.037 10.789-.07 24.1-.07s24.102.033 24.102.07M78.047 76.962h-.428a2.626 2.626 0 0 0-2.627 2.626v21.129a2.627 2.627 0 0 0 2.627 2.627h.428a2.627 2.627 0 0 0 2.627-2.627V79.588a2.626 2.626 0 0 0-2.627-2.626" fill="#E0E0E0"/><path d="M88.896 90.78a9.158 9.158 0 1 1-9.17-9.126 9.147 9.147 0 0 1 9.17 9.126" fill="#FF725E"/><path d="M86.97 90.876a6.968 6.968 0 1 1-13.937.027 6.968 6.968 0 0 1 13.936-.027" fill="#FF725E"/><path d="M86.717 90.783a.5.5 0 0 1-.013-.113c0-.083-.016-.193-.024-.332q0-.11-.017-.242c0-.09-.029-.187-.048-.292a5 5 0 0 0-.147-.718 6.97 6.97 0 0 0-5.465-5.076 6.97 6.97 0 0 0-3.626.306q-.463.167-.9.396a6 6 0 0 0-.429.268q-.218.128-.415.287a8 8 0 0 0-.786.665 8 8 0 0 0-.675.804 6.7 6.7 0 0 0-.986 1.9 7.3 7.3 0 0 0-.354 2.176c.01.74.131 1.473.36 2.176.225.682.56 1.323.99 1.898q.313.425.679.804.372.358.785.664.405.299.847.536.437.227.9.394a6.97 6.97 0 0 0 3.63.298 6.97 6.97 0 0 0 5.451-5.092 5 5 0 0 0 .144-.719c.016-.104.038-.2.046-.289s0-.169.016-.244l.024-.33a.5.5 0 0 1 .013-.112.6.6 0 0 1 0 .112v.577c0 .088-.024.187-.04.294q-.038.368-.134.724a6.5 6.5 0 0 1-.759 1.876 7.05 7.05 0 0 1-4.724 3.326 7.05 7.05 0 0 1-3.696-.292 7 7 0 0 1-1.785-.935 8 8 0 0 1-.804-.676 8 8 0 0 1-.691-.804 6.8 6.8 0 0 1-1.016-1.937 6.93 6.93 0 0 1 0-4.444 6.8 6.8 0 0 1 1.008-1.94q.316-.427.691-.804.38-.366.804-.678a3.5 3.5 0 0 1 .424-.292c.147-.086.289-.18.439-.268q.446-.233.92-.402a7.06 7.06 0 0 1 3.695-.3 7 7 0 0 1 2.948 1.318 6.9 6.9 0 0 1 1.777 1.997 6.5 6.5 0 0 1 .766 1.876q.095.357.134.726.026.158.04.292v.579q.003.03.003.061" fill="#263238"/><path d="M86.66 90.855c-.04 0-.07-.306-.182-.839a7.4 7.4 0 0 0-.804-2.144 7 7 0 0 0-.917-1.268 7 7 0 0 0-1.361-1.15 6.74 6.74 0 0 0-4.926-.949q-.51.096-1 .269-.473.169-.913.41-.422.228-.804.517c-.48.356-.913.772-1.287 1.238-.324.41-.603.854-.83 1.324a7.4 7.4 0 0 0-.66 2.187c-.078.536-.088.847-.129.85-.04.002-.09-.306-.077-.869a6.5 6.5 0 0 1 .536-2.323 7.07 7.07 0 0 1 3.026-3.372q.472-.265.98-.453a7 7 0 0 1 4.457-.147 7.05 7.05 0 0 1 3.329 2.17q.54.64.919 1.384a6.6 6.6 0 0 1 .673 2.283c.043.571.002.882-.03.882" fill="#000" opacity=".3"/><path d="m80.532 94.947.018 1.214-1.085.019-.019-1.185c-1.072-.048-2.109-.367-2.715-.825l.577-1.34a4.4 4.4 0 0 0 2.117.737l-.03-1.812c-1.208-.268-2.559-.656-2.583-2.208-.019-1.15.804-2.144 2.514-2.372l-.02-1.206 1.086-.016.02 1.182a4.9 4.9 0 0 1 2.21.627l-.52 1.34a4.5 4.5 0 0 0-1.67-.536l.03 1.844c1.209.268 2.538.646 2.562 2.173.019 1.148-.79 2.136-2.492 2.364m-1.16-4.78-.025-1.542c-.573.14-.804.458-.79.817.013.36.334.587.814.73zm1.907 2.585c0-.378-.324-.579-.804-.737l.025 1.498c.552-.12.785-.407.78-.755z" fill="#000" opacity=".3"/><path d="M74.783 78.02h-10.57v23.627h10.57z" fill="#fff"/><path d="M133.448 88.714a9.783 9.783 0 0 1-14.774 10.428 9.782 9.782 0 0 1-1.852-15.019 9.8 9.8 0 0 1 4.947-2.798 9.77 9.77 0 0 1 11.679 7.389" fill="#FF725E"/><path d="M131.46 89.26a7.46 7.46 0 0 1-11.257 7.95 7.45 7.45 0 0 1-3.361-7.577 7.45 7.45 0 0 1 5.717-6 7.447 7.447 0 0 1 8.901 5.627" fill="#FF725E"/><path d="M131.176 89.22a.6.6 0 0 1-.041-.112l-.102-.34-.072-.25c-.032-.091-.075-.188-.115-.292a6 6 0 0 0-.322-.713 7.2 7.2 0 0 0-1.241-1.742 7.405 7.405 0 0 0-9.345-1.126 8 8 0 0 0-.847.622 8 8 0 0 0-.388.367 4 4 0 0 0-.367.397q-.362.415-.662.876a8 8 0 0 0-.52.99 7.1 7.1 0 0 0-.587 2.21 7.26 7.26 0 0 0 1.013 4.537c.394.66.891 1.25 1.474 1.75a6.7 6.7 0 0 0 1.876 1.185 7.4 7.4 0 0 0 1.01.37q.508.135 1.029.2a7.416 7.416 0 0 0 7.976-5.003 7 7 0 0 0 .381-2.1q.02-.393-.014-.783c0-.113 0-.218-.021-.314s-.027-.18-.04-.268l-.051-.351a1 1 0 0 1-.014-.12.6.6 0 0 1 .03.117q.023.128.067.349.018.118.048.268c0 .096.016.2.027.316q.043.392.027.788a7 7 0 0 1-.357 2.128 7.5 7.5 0 0 1-4.154 4.556 7.5 7.5 0 0 1-3.921.552 8 8 0 0 1-1.053-.201 8.5 8.5 0 0 1-2.023-.892 8 8 0 0 1-.912-.69 7.2 7.2 0 0 1-1.506-1.784 8 8 0 0 1-.9-2.233 8 8 0 0 1-.137-2.412c.078-.78.281-1.542.603-2.256q.233-.524.536-1.01a9 9 0 0 1 .678-.89q.173-.217.375-.405c.134-.123.268-.255.397-.373q.41-.346.866-.632a7.55 7.55 0 0 1 3.784-1.171 7.5 7.5 0 0 1 5.703 2.358 7 7 0 0 1 1.23 1.772q.182.352.311.726c.04.107.08.204.11.295.029.09.045.177.064.268l.088.343q.01.06.009.123" fill="#263238"/><path d="M131.136 89.32c-.043 0-.145-.304-.386-.834a8 8 0 0 0-1.34-2.045 7.7 7.7 0 0 0-1.249-1.107 7.5 7.5 0 0 0-1.688-.884 7.1 7.1 0 0 0-2.048-.432 7 7 0 0 0-1.104.016 8 8 0 0 0-1.112.193q-.55.146-1.072.37a7.2 7.2 0 0 0-2.565 1.887 7.4 7.4 0 0 0-1.051 1.589 7.8 7.8 0 0 0-.562 1.573 8 8 0 0 0-.18 2.434c.046.581.107.903.062.913-.046.011-.166-.294-.268-.887a6.9 6.9 0 0 1 0-2.543 7.46 7.46 0 0 1 1.608-3.422q.353-.431.766-.804.43-.388.917-.702a7.4 7.4 0 0 1 2.213-.97q.598-.153 1.212-.21a7.4 7.4 0 0 1 1.192 0 7 7 0 0 1 1.142.172q.54.12 1.056.327c.634.25 1.232.583 1.777.991.472.359.901.77 1.278 1.228.544.66.962 1.415 1.233 2.227.171.57.201.903.169.92" fill="#000" opacity=".3"/><path d="m125.693 95.004.302 1.264-1.128.269-.295-1.228c-1.133.198-2.286.105-3.023-.233l.292-1.522a4.7 4.7 0 0 0 2.378.268l-.451-1.876c-1.324 0-2.822-.089-3.216-1.702-.284-1.195.338-2.428 2.072-3.058l-.3-1.252 1.128-.268.295 1.23a5.24 5.24 0 0 1 2.452.14l-.23 1.522a4.8 4.8 0 0 0-1.876-.174l.458 1.919c1.324 0 2.798.083 3.178 1.672.301 1.171-.316 2.393-2.036 3.029m-2.319-4.715-.383-1.608c-.565.268-.723.662-.635 1.032s.485.539 1.021.576zm2.587 2.246c-.094-.394-.475-.536-1-.584l.372 1.557c.542-.252.719-.603.628-.973" fill="#000" opacity=".3"/><path d="M112.322 84.43a10.86 10.86 0 0 1-14.459 5.178 11 11 0 0 1-1.653-.961 10.85 10.85 0 0 1 3.548-19.337 10.85 10.85 0 0 1 12.564 15.12" fill="#FF725E"/><path d="M110.205 83.557a8.29 8.29 0 0 1-7.882 4.76A8.285 8.285 0 1 1 110.5 77.23a8.27 8.27 0 0 1-.295 6.327" fill="#FF725E"/><path d="M109.982 83.327q.018-.064.043-.126l.142-.367.107-.268c.032-.1.062-.215.097-.335q.133-.415.203-.844a7.8 7.8 0 0 0 .1-2.372 8.225 8.225 0 0 0-7.435-7.362 8.5 8.5 0 0 0-1.168-.032c-.196 0-.392.04-.59.059q-.299.026-.592.096a7.4 7.4 0 0 0-2.31.834c-.754.4-1.437.919-2.024 1.538a8.08 8.08 0 0 0-2.203 4.674 7.9 7.9 0 0 0 .102 2.54 7.4 7.4 0 0 0 .828 2.31q.281.53.636 1.014.353.465.766.879a8.3 8.3 0 0 0 3.752 2.162 8.27 8.27 0 0 0 6.665-1.115 7.9 7.9 0 0 0 1.769-1.586q.285-.33.52-.697c.072-.104.142-.198.195-.287l.143-.254.192-.343a1 1 0 0 1 .07-.115 1 1 0 0 1-.053.123q-.068.129-.18.35l-.134.269c-.054.091-.121.187-.19.295q-.23.374-.512.71a7.8 7.8 0 0 1-1.764 1.624 8.33 8.33 0 0 1-6.759 1.174 8.25 8.25 0 0 1-5.258-4.125 9.5 9.5 0 0 1-.517-1.133q-.209-.601-.332-1.225a8 8 0 0 1-.105-2.592 8.27 8.27 0 0 1 2.251-4.775 8 8 0 0 1 2.067-1.568 9 9 0 0 1 1.155-.536q.592-.2 1.203-.322.299-.07.603-.096c.204-.02.405-.049.603-.057a8.5 8.5 0 0 1 5.309 1.587 8.33 8.33 0 0 1 3.398 5.957 7.8 7.8 0 0 1-.128 2.397q-.078.431-.22.846c-.04.12-.07.233-.107.335-.038.102-.081.188-.115.268l-.159.362a.5.5 0 0 1-.064.129" fill="#263238"/><path d="M109.881 83.378c-.046-.02.078-.362.228-.992a8.8 8.8 0 0 0 .225-2.701 8.2 8.2 0 0 0-1.217-3.752 8 8 0 0 0-2.487-2.514 8 8 0 0 0-2.316-1.003 8 8 0 0 0-3.534-.093c-.696.14-1.37.367-2.008.678a8.6 8.6 0 0 0-1.565 1 8.8 8.8 0 0 0-1.817 2.012c-.356.536-.522.866-.568.844-.046-.021.056-.372.356-.97a7.8 7.8 0 0 1 1.742-2.227 8.4 8.4 0 0 1 1.608-1.126 8.5 8.5 0 0 1 2.126-.782 8.4 8.4 0 0 1 3.805.054 8.4 8.4 0 0 1 2.501 1.071q.559.36 1.053.804a8.2 8.2 0 0 1 1.586 1.933 8.3 8.3 0 0 1 1.169 4.02 7.7 7.7 0 0 1-.434 2.792c-.212.657-.413.968-.453.952" fill="#000" opacity=".3"/><path d="m101.229 84.667-.598 1.313-1.17-.536.578-1.278c-1.128-.598-2.08-1.469-2.495-2.265l1.294-1.139a5.2 5.2 0 0 0 1.898 1.876l.89-1.96c-1.158-.908-2.412-2.001-1.657-3.681.566-1.244 1.954-1.9 3.902-1.27l.593-1.303 1.174.536-.582 1.27a5.8 5.8 0 0 1 2.058 1.796l-1.241 1.176a5.3 5.3 0 0 0-1.519-1.423l-.906 1.994c1.166.895 2.399 1.98 1.648 3.634-.552 1.222-1.916 1.874-3.867 1.26m1.179-5.72.756-1.666c-.686-.142-1.085.088-1.262.474s.064.793.506 1.193m.737 3.753c.185-.41-.053-.788-.48-1.193l-.734 1.608c.646.14 1.043-.048 1.214-.423z" fill="#000" opacity=".3"/><path d="M43.442 65.856c-3.138 1.624-5.545 4.425-7.276 7.504-1.731 3.08-2.843 6.464-3.95 9.822l-.965 17.316c3.65-6.213 6.582-13.516 7.375-20.68l-2.43-.216c1.629-.25 2.996-1.429 3.867-2.83.87-1.402 1.318-2.997 1.744-4.605l-2.948.445c2.34-1.58 3.98-4 4.583-6.756" fill="#455A64"/><path d="M43.442 65.856c-3.138 1.624-5.545 4.425-7.276 7.504-1.731 3.08-2.843 6.464-3.95 9.822l-.965 17.316c3.65-6.213 6.582-13.516 7.375-20.68l-2.43-.216c1.629-.25 2.996-1.429 3.867-2.83.87-1.402 1.318-2.997 1.744-4.605l-2.948.445c2.34-1.58 3.98-4 4.583-6.756" fill="#000" opacity=".3"/><path d="M30.71 104.558s-7.93-9.488-7.837-18.546h3.216s-3.484-2.286-3.216-3.567.367-6.13.367-6.13l2.927.733s-2.195-1.1-2.469-2.836c-.273-1.737.638-9.79.638-9.79s3.57 3.752 4.666 7.592 3.98 8.327 3.136 20.036-1.429 12.508-1.429 12.508m4.018.895s8.576-5.722 10.497-13.022l-2.575-.7s3.296-1.072 3.355-2.165c.059-1.094 1.048-5.01 1.048-5.01l-2.514-.053s2.005-.402 2.605-1.74c.6-1.336 1.632-8.012 1.632-8.012s-3.688 2.235-5.41 5.092c-1.724 2.857-5.029 5.815-6.918 15.415s-1.72 10.195-1.72 10.195" fill="#455A64"/><path d="M26.502 72.703q.021.046.03.097.024.108.07.292l.248 1.125c.11.49.239 1.088.376 1.788.136.7.305 1.49.466 2.372.338 1.76.697 3.862 1.072 6.201.375 2.34.715 4.923 1.032 7.638.316 2.715.552 5.31.74 7.673s.305 4.492.377 6.282c.043.893.065 1.705.089 2.412.024.708.035 1.324.04 1.825s0 .882 0 1.153v.3a.4.4 0 0 1 0 .102.5.5 0 0 1 0-.102v-.298c0-.268-.024-.659-.04-1.155s-.035-1.112-.067-1.822-.057-1.52-.107-2.412a212 212 0 0 0-1.158-13.942 221 221 0 0 0-1.019-7.632c-.35-2.34-.707-4.444-1.034-6.204-.156-.882-.314-1.678-.445-2.375s-.252-1.3-.354-1.79l-.225-1.134-.053-.295a1 1 0 0 1-.038-.099" fill="#263238"/><path d="M29.61 110.368s-7.254-8.23-9.51-13.207l1.699-.726c-1.233.203-2.495-.327-3.452-1.131s-1.656-1.863-2.345-2.906l2.24-.377a8.3 8.3 0 0 1-4.893-3.793c2.642.437 5.033 1.876 7.005 3.702a35 35 0 0 1 4.248 4.92 16.7 16.7 0 0 1 1.662 2.71c1.206 2.519 3.35 7.785 3.347 10.808" fill="#455A64"/><path d="M45.337 79.543a.4.4 0 0 1-.032.083l-.112.238q-.16.326-.443.914a199 199 0 0 0-3.875 8.41c-.828 1.91-1.694 4.02-2.562 6.268a191 191 0 0 0-2.32 6.363 161 161 0 0 0-1.719 5.258 204 204 0 0 0-1.072 3.572l-.286.973-.078.252a.3.3 0 0 1-.032.083s0-.029.018-.088l.065-.255q.091-.35.268-.981c.228-.849.576-2.077 1.032-3.586a164 164 0 0 1 6.577-17.91c.825-1.91 1.607-3.615 2.296-5.036s1.236-2.554 1.64-3.358q.298-.58.467-.9c.05-.1.09-.174.123-.233a.4.4 0 0 1 .045-.067m-15.112 34.352a.6.6 0 0 1-.032-.153l-.073-.437c-.027-.19-.061-.421-.112-.689s-.094-.576-.166-.911a33 33 0 0 0-.555-2.345 30 30 0 0 0-.911-2.803 36 36 0 0 0-1.172-2.71 30 30 0 0 0-1.133-2.125c-.166-.3-.335-.56-.475-.804s-.268-.431-.372-.592l-.236-.373a1 1 0 0 1-.075-.136s.038.037.1.12l.267.359c.113.156.247.352.392.582.144.231.324.501.485.793.359.587.755 1.305 1.165 2.12s.804 1.734 1.182 2.715.668 1.943.906 2.819c.239.877.41 1.683.536 2.361.067.338.107.646.147.917q.06.407.092.697c.021.193.032.324.043.439a.6.6 0 0 1-.003.156" fill="#263238"/><path d="M39.797 111.957H23.921v3.238h15.876zm-14.364 3.24 1.718 10.892h9.594l1.6-10.892z" fill="#FF725E"/><path d="M38.822 115.197c0 .038-3.002.07-6.7.07s-6.7-.032-6.7-.07c0-.037 3.002-.069 6.7-.069s6.7.029 6.7.069" fill="#263238"/><path d="M156.563 93.559h-41.722a2.11 2.11 0 0 0-2.11 2.11V124.1a2.11 2.11 0 0 0 2.11 2.109h41.722a2.11 2.11 0 0 0 2.109-2.109V95.668a2.11 2.11 0 0 0-2.109-2.109" fill="#455A64"/><path d="M157.994 106.887h-11.891a3.573 3.573 0 0 0-3.573 3.572v.587c0 1.973 1.6 3.572 3.573 3.572h11.891a3.57 3.57 0 0 0 3.572-3.572v-.587a3.57 3.57 0 0 0-3.572-3.572" fill="#455A64"/><path d="M157.997 114.752h-11.891a3.71 3.71 0 0 1-3.71-3.709v-.584a3.71 3.71 0 0 1 3.71-3.706h11.891a3.71 3.71 0 0 1 3.706 3.706v.584a3.7 3.7 0 0 1-1.087 2.62 3.7 3.7 0 0 1-2.619 1.089m-11.891-7.731a3.444 3.444 0 0 0-3.442 3.438v.584a3.446 3.446 0 0 0 3.442 3.441h11.891a3.44 3.44 0 0 0 3.438-3.441v-.584a3.45 3.45 0 0 0-1.008-2.43 3.45 3.45 0 0 0-2.43-1.008z" fill="#263238"/><path d="M149.044 112.32a2.747 2.747 0 1 0-4.493-3.16 2.747 2.747 0 0 0 4.493 3.16m-5.592-77.855a10 10 0 0 0 .786 4.121 10 10 0 0 0 2.408 3.437q.71-2.07 1.429-4.138" fill="#263238"/><path d="M154.218 26.235c-1.228-.67-2.707-.767-4.077-.49a12.8 12.8 0 0 0-3.856 1.591 6.3 6.3 0 0 0-1.844 1.44c-.89 1.12-1.769 2.947-1.855 4.386-.069 1.156.373 4.045.861 5.092.447.963 2.543 1.694 3.577 1.933l9.488-11.04a4.8 4.8 0 0 0-2.294-2.912" fill="#263238"/><path d="m155.852 27.725-2.275-.408c1.244 2.948 1.581 9.737 2.294 12.864.839-1.219 2.787-4.925 2.68-6.4-.107-1.474.006-6.308-2.699-6.056" fill="#263238"/><path d="M157.155 32.554c-.148-2.273-1.662-5.06-3.927-4.824l-5.239 1.34a3.89 3.89 0 0 0-2.927 3.58v.046l1.172 13.572 3.934 7.807 3.484-6.585v-3.586c0 .005 2.905-.488 3.484-4.288.284-1.87.179-4.537.019-7.062" fill="#FFBF9D"/><path d="M155.531 35.663a.487.487 0 0 1-.467.493.46.46 0 0 1-.455-.259.5.5 0 0 1-.048-.178.487.487 0 0 1 .469-.493.47.47 0 0 1 .453.26.5.5 0 0 1 .048.177m1.056-1.624c-.061.064-.429-.21-.954-.207s-.906.268-.962.201.035-.142.201-.268a1.32 1.32 0 0 1 1.528.003c.16.129.217.241.187.27m-5.435 1.625a.487.487 0 0 1-.467.493.46.46 0 0 1-.343-.113.47.47 0 0 1-.16-.324.487.487 0 0 1 .469-.493.46.46 0 0 1 .455.259.5.5 0 0 1 .046.178m.466-1.624c-.059.064-.429-.21-.951-.207-.523.003-.906.268-.963.201s.033-.142.201-.268c.225-.159.494-.243.77-.24.272-.002.537.084.758.243.161.129.214.241.185.27m1.635 4.109c.275-.087.561-.14.85-.155.134 0 .268-.04.268-.131a.7.7 0 0 0-.089-.397c-.126-.322-.268-.662-.396-1.016-.553-1.447-.952-2.637-.893-2.658.059-.022.571 1.125 1.107 2.58.131.357.268.697.38 1.022a.77.77 0 0 1 .07.535.33.33 0 0 1-.22.196 1 1 0 0 1-.225.032q-.426.05-.852-.008" fill="#263238"/><path d="M148.604 42.561s1.232 2.602 5.025 2.24v-.892a9.5 9.5 0 0 1-5.025-1.348" fill="#FF9A6C"/><path d="M151.455 32.15c-.051.142-.573.075-1.187.15s-1.11.243-1.19.117c-.038-.061.048-.195.249-.332.265-.173.567-.28.882-.313.314-.037.632 0 .93.107.225.088.338.204.316.27m4.96.29c-.091.12-.453 0-.884 0-.432 0-.804.08-.887-.043-.035-.059.021-.18.182-.292a1.29 1.29 0 0 1 1.426.04c.152.115.203.236.163.295" fill="#263238"/><path d="M156.126 29.094a1.67 1.67 0 0 0-1.474-.946 3.26 3.26 0 0 0-1.747.512c-2.257 1.302-3.417 4.454-5.647 5.805-.549.332-1.262.027-1.729.466-.466.44-.769 1.145-.511 1.732a5.4 5.4 0 0 1-.775-1.311 1.8 1.8 0 0 1 .064-1.477c.193-.335.536-.59.627-.965.084-.33-.048-.672-.034-1.012.039-.346.158-.677.348-.968.874-1.544 2.074-2.948 3.623-3.811a6.44 6.44 0 0 1 3.326-.86 4.9 4.9 0 0 1 3.163 1.257c.501.466 1.023.946.766 1.578" fill="#263238"/><path d="M145.582 35.403c-.04-.11-2.015-.823-2.042 1.278-.027 2.04 2.034 1.64 2.04 1.582.005-.06.002-2.86.002-2.86" fill="#FFBF9D"/><path d="M144.956 37.483s-.035.024-.097.05a.34.34 0 0 1-.268 0c-.214-.08-.394-.423-.399-.803a1.2 1.2 0 0 1 .105-.507.4.4 0 0 1 .268-.268.18.18 0 0 1 .122.011q.059.03.087.088c.026.056 0 .097.024.102s.043-.035.026-.118a.2.2 0 0 0-.077-.129.27.27 0 0 0-.196-.053.49.49 0 0 0-.375.31 1.2 1.2 0 0 0-.129.569c0 .413.217.804.509.887a.39.39 0 0 0 .327-.051c.07-.04.081-.086.073-.088" fill="#FF9A6C"/><path d="M144.771 34.352a1 1 0 0 0 .123-.07c.078-.048.198-.115.343-.216q.603-.444 1.101-1.003.72-.837 1.34-1.75a16 16 0 0 1 1.686-2.098 6.4 6.4 0 0 1 1.072-.86 5.4 5.4 0 0 1 1.174-.537 5.8 5.8 0 0 1 2.163-.268c.493.026.98.116 1.45.268.166.051.292.11.377.143a1 1 0 0 0 .134.045l-.126-.064a5.3 5.3 0 0 0-1.83-.472 5.8 5.8 0 0 0-2.192.25q-.632.192-1.196.535a6.7 6.7 0 0 0-1.106.871 15.4 15.4 0 0 0-1.689 2.115 22 22 0 0 1-1.326 1.758 7.7 7.7 0 0 1-1.072 1.016c-.14.107-.268.177-.333.23a1 1 0 0 0-.093.107" fill="#455A64"/><path d="M145.286 34.931c-.032.558-.059 1.145.198 1.64.257.496.909.834 1.394.555.394-.225.512-.731.579-1.182.195-1.3.284-2.615.487-3.913z" fill="#263238"/><path d="M155.623 28.121s-.18-.032-.507-.043a3.4 3.4 0 0 0-1.34.247 4.5 4.5 0 0 0-.847.434 10.6 10.6 0 0 0-2.581 2.511c-.268.365-.487.737-.737 1.072a5.2 5.2 0 0 1-.817.92 9.3 9.3 0 0 1-1.726 1.155c-.536.268-.959.469-1.26.603l-.348.147a1 1 0 0 1-.126.046s.038-.027.115-.067l.341-.17c.294-.144.726-.348 1.24-.632a9.5 9.5 0 0 0 1.694-1.163q.457-.404.804-.906c.244-.343.475-.718.737-1.072a10.2 10.2 0 0 1 1.734-1.857q.423-.36.89-.665.41-.264.868-.434a3.4 3.4 0 0 1 1.383-.214q.191.01.378.054.054.012.105.034m-10.394 5.548a1 1 0 0 1-.182.123l-.517.303-.175.1a.6.6 0 0 1-.222.074.22.22 0 0 1-.137-.032.18.18 0 0 1-.08-.126.45.45 0 0 1 .096-.268l.601-.962.08.078a2.14 2.14 0 0 1-1.386.413.6.6 0 0 1-.184-.033.24.24 0 0 1-.159-.139.23.23 0 0 1 .033-.206 1 1 0 0 1 .118-.126q.403-.394.694-.877a7.4 7.4 0 0 0 .442-.94 1.2 1.2 0 0 1-.064.268 4.1 4.1 0 0 1-1 1.619c-.075.072-.15.155-.121.22.03.063.14.096.247.096.47.024.933-.114 1.313-.392l.244-.18-.164.269-.611.954a.37.37 0 0 0-.085.198c0 .06.051.091.115.086.131-.026.256-.077.367-.15l.536-.268a.8.8 0 0 1 .201-.102" fill="#455A64"/><path d="M152.801 39.139a.92.92 0 0 0-.823-.306.84.84 0 0 0-.563.32.51.51 0 0 0-.021.592.62.62 0 0 0 .667.144c.234-.09.448-.226.63-.399a.5.5 0 0 0 .139-.15.17.17 0 0 0 0-.185" fill="#FF9A6C"/><path d="M151.506 38.33c.083 0 .099.535.578.895.48.359 1.072.292 1.072.367 0 .032-.125.107-.372.12a1.36 1.36 0 0 1-.887-.268 1.16 1.16 0 0 1-.453-.753c-.024-.23.024-.364.062-.361m7.614 36.273 2.195 4.958-10.653 3.985-2.383-5.33z" fill="#263238"/><path d="m180.645 104.772 2.913 6.29s7.277-.965 7.928.147l-11.894 6.199-4.945-9.613z" fill="#455A64"/><path d="M179.678 112.405a.553.553 0 0 0-.054.737.536.536 0 0 0 .729.061.586.586 0 0 0 .054-.78.56.56 0 0 0-.767.019" fill="#E0E0E0"/><path d="m179.59 117.408-.392-.753 11.666-5.786a1.03 1.03 0 0 1 .716.386zm4.1-6.362c.027.059-.255.236-.448.571s-.222.664-.289.67c-.067.005-.153-.383.091-.785s.63-.518.646-.456m1.53-.121c.043.051-.161.282-.233.633s0 .643-.059.67-.268-.287-.166-.721.426-.638.458-.582m1.49 1.153c-.046.037-.268-.215-.292-.614s.198-.67.249-.633-.032.295-.019.625.118.584.062.622m-3.851-2.391c0 .064-.309.121-.63.314-.322.193-.536.429-.587.394s.088-.373.469-.593c.38-.219.753-.187.748-.115m-.461-1.452c0 .024-.201.179-.606.305a3 3 0 0 1-.731.126 3 3 0 0 1-.44 0 1 1 0 0 1-.268-.048.285.285 0 0 1-.187-.3.36.36 0 0 1 .19-.268.8.8 0 0 1 .241-.083q.22-.05.442-.062.38-.016.745.083c.41.118.619.289.603.311-.016.021-.246-.083-.64-.153a2.7 2.7 0 0 0-.694-.029 2.5 2.5 0 0 0-.4.069c-.147.03-.268.086-.268.158 0 .03 0 .038.049.062q.09.031.187.035a3.6 3.6 0 0 0 1.11-.051 5 5 0 0 1 .667-.155" fill="#263238"/><path d="m169.328 114.878-.37 6.923s6.88 2.554 6.936 3.84l-13.414-.088.132-10.809z" fill="#455A64"/><path d="M164.9 121.174a.55.55 0 0 0-.394.624.54.54 0 0 0 .617.394.58.58 0 0 0 .412-.665.55.55 0 0 0-.686-.337" fill="#E0E0E0"/><path d="M162.48 125.553v-.86l13.017.345a1 1 0 0 1 .453.676zm6.598-3.707c0 .067-.332.091-.662.298-.329.206-.506.482-.568.455s.046-.407.448-.651.812-.161.782-.102m1.413.611c.013.067-.268.175-.504.451s-.3.568-.367.565-.099-.378.19-.715c.289-.338.681-.362.681-.301m.777 1.716c-.061.013-.147-.319.03-.678s.488-.499.514-.443c.027.057-.169.247-.308.536s-.171.571-.236.585m-2.281-3.924c-.03.059-.33-.038-.705-.019s-.667.132-.699.075c-.033-.056.249-.289.691-.305s.748.198.713.249m.268-1.487a1.3 1.3 0 0 1-.678-.016 3.1 3.1 0 0 1-1.093-.445.8.8 0 0 1-.201-.164.28.28 0 0 1-.072-.171.28.28 0 0 1 .048-.18.38.38 0 0 1 .292-.147 1 1 0 0 1 .254.04c.388.106.744.307 1.035.584.308.298.413.536.389.558-.025.021-.18-.188-.496-.435a2.8 2.8 0 0 0-.598-.351 2.4 2.4 0 0 0-.388-.126c-.143-.04-.268-.043-.303.019s-.016.035.013.078a.8.8 0 0 0 .15.118 3.7 3.7 0 0 0 1.005.479q.327.056.643.159m-30.606-37.116s26.878-3.366 28.462-3.366c3.717 0 6.051 2.833 6.606 5.02.41 1.608 8.683 24.991 8.683 24.991l-6.102 3.162-8.975-15.948-4.575-7.957-23.584 3.642z" fill="#263238"/><path d="M163.857 86.813s3.685 0 5.674 2.948c1.168 1.734.758 4.824.782 7.164.033 3.181-.737 22.563-.737 22.563l-7.533.126-1.579-20.2.092-3.733-15.033-1.227s-1.369-4.556 2-8.158c.412-.46 16.334.517 16.334.517" fill="#263238"/><path d="M140.946 75.147s-5.941 9.144-2.296 16.016c1.736 3.272 6.933 3.27 6.933 3.27l5.33-6.674V76.723z" fill="#263238"/><path d="M145.583 94.433a1 1 0 0 1 .102-.054l.3-.14 1.158-.535 4.288-1.906 6.349-2.806 3.752-1.653c.329-.137.646-.3.994-.418q.525-.18 1.072-.269c.744-.11 1.5-.117 2.246-.018a7.2 7.2 0 0 1 2.163.61c.336.16.648.364.927.61.271.246.502.535.683.854.355.617.57 1.304.63 2.013.03.348 0 .683 0 1.018v.992c-.032 2.613-.059 4.963-.08 6.941s-.051 3.567-.067 4.679c0 .536-.019.973-.024 1.273v.33q.003.056 0 .112a1 1 0 0 1 0-.112v-1.603c0-1.112 0-2.709.018-4.679.019-1.97.03-4.33.049-6.941v-.992c0-.335.016-.675-.014-1.008a4.7 4.7 0 0 0-.614-1.948 3.3 3.3 0 0 0-.653-.82 3.7 3.7 0 0 0-.896-.581 7 7 0 0 0-2.114-.6 8 8 0 0 0-2.203.018 6 6 0 0 0-1.045.268c-.335.115-.66.268-.987.415l-3.752 1.646-6.359 2.776-4.288 1.86-1.171.499-.306.126a.5.5 0 0 1-.158.043m20.998-16.153c0 .038-5.642.673-12.61 1.418s-12.62 1.319-12.625 1.28c-.006-.037 5.641-.672 12.609-1.417s12.62-1.318 12.626-1.28" fill="#455A64"/><path d="M159.937 64.958c.437-1.391 1.965-6.51 1.622-9.208-.268-2.145-2.206-4.916-2.782-6.39-.268-.694-2.442-1.41-3.736-1.793l-1.286-1.52-.108.743a3.7 3.7 0 0 1-3.071 1.257c-1.911-.171-3.484-.951-4.521-2.104-4.963 1.515-4.947 1.852-5.896 2.23-1.227.488 2.444 12.25 2.444 12.25s1.316 7.39.078 9.879c-.697 1.401-1.504 3.001-2.096 4.304 0 0-1.651 3.146-1.297 3.066.742-.172 5.896 1.072 10.739 1.34 8.954.472 10.666-.855 10.666-.855-.469-2.291-1.254-10.323-1.251-11.883-.006-.27.418-1.075.495-1.316" fill="#FF725E"/><path d="M153.912 46.415s5.834 1.504 6.405 2.28c1.552 2.11 10.9 16.542 6.312 20.846-3.007 2.82-7.236-3.13-7.236-3.13z" fill="#FF725E"/><path d="M166.068 63.412a2.6 2.6 0 0 1-.41-.07l-1.117-.23c-.952-.194-2.284-.467-3.811-.687l.08-.045-.458 1.13-1.088 2.657V66.1l1.688 2.026.469.579q.088.1.156.214s.431.198-.188-.188l-.501-.554-1.731-1.992-.027-.032.016-.035 1.072-2.663q.239-.58.461-1.129l.021-.053h.062c1.536.227 2.865.517 3.811.737.474.11.85.203 1.109.268q.198.053.386.134m-5.611-.678q0-.24.043-.475l.163-1.284c.2-1.404.248-2.825.142-4.24a11.4 11.4 0 0 0-1.206-4.054 19 19 0 0 0-.622-1.14 3.5 3.5 0 0 1-.233-.417s.032.032.081.096q.073.099.203.292c.172.268.408.636.668 1.123a10.9 10.9 0 0 1 1.259 4.087 18 18 0 0 1-.187 4.267c-.078.536-.156.978-.21 1.278a3 3 0 0 1-.101.466" fill="#263238"/><path d="m141.346 73.507 11.044-5.092-.748-2.184 1.699-.649 2.769.362a4.5 4.5 0 0 0 3.771-1.28l-6.88-1.74-7.847 1.672-1.994-5.78-.493 1.693.41 3.637.268 3.929z" fill="#000" opacity=".3"/><path d="M140.293 48.114a5.03 5.03 0 0 0-2.825 3.238c-.379.845-.667 1.73-.858 2.637-.93 4.1-2.948 11.792-3.023 13.845-.145 3.693 2.793 4.74 4.379 5.062 1.587.322 12.596-5.376 12.596-5.376l-2.288-6.22-6.73 2.784s1.536-4.743 1.981-6.684-3.232-9.286-3.232-9.286" fill="#FF725E"/><path d="M160.771 61.694a5.1 5.1 0 0 1-.062-1.855 3.3 3.3 0 0 0 .04-1.125c-.069-.368-.412-.756-.785-.727l-.563 2.704z" fill="#FFBF9D"/><path d="m160.511 55.348-1.981 9.556-4.698-.284 1.391-9.455a.51.51 0 0 1 .504-.431h4.288a.51.51 0 0 1 .395.188.5.5 0 0 1 .101.425" fill="#263238"/><path d="M155.229 57.832q.048-.131.072-.268l.158-.775.222-1.147c0-.053.019-.112.033-.155a.3.3 0 0 1 .083-.12.27.27 0 0 1 .134-.07 1 1 0 0 1 .166 0h.742c1.016 0 1.938-.016 2.602-.027l.804-.022q.146.006.29-.021a2 2 0 0 0-.29-.016h-4.148a1 1 0 0 0-.188 0 .4.4 0 0 0-.174.088.4.4 0 0 0-.107.161 2 2 0 0 0-.038.172l-.201 1.152-.126.777q-.028.135-.034.27" fill="#455A64"/><path d="M157.739 55.747a.23.23 0 0 1 .268-.14.22.22 0 0 1 .166.185.27.27 0 0 1-.128.239.24.24 0 0 1-.268-.024.22.22 0 0 1-.038-.26" fill="#FAFAFA"/><path d="M157.868 58.63c.11.027 2.594 1.311 2.594 1.311l1.297 1.367s.469.804.088 2.026c-.38 1.222-.999 1.67-2.428 2.023l-2.698-.426-1.367-1.12a.85.85 0 0 1-.268-.914l.019-.056-.156-.268a.48.48 0 0 1 .024-.52.473.473 0 0 1 .657-.102l1.538 1.126 1.059.139.158-.346-1.552-.804-1.972-1.527a.58.58 0 0 1-.201-.63.58.58 0 0 1 .849-.327l1.833 1.072 1.914.844-.303-.761-2.248-1.664s-.193-.786 1.163-.443" fill="#FFBF9D"/><path d="M157.643 57.32s-.518-.297-1.378.059-1.959.895-1.959.895l-1.648.47.195-.408s1.627.166 1.55-1.019l-.981.043-.842-.431-1.659 1.608-.624 2.28-1.825.95 1.433 3.901 2.576-1.428 3.216-.062 1.182-.957.131-1.214 1.158-1.179s.145-.59-.389-.646c-.533-.056-1.817 1.22-1.817 1.22l-1.289.03s-.22-.202-.04-.317 3.977-1.98 4.146-2.399c.169-.418.343-.691-.035-.804a2.1 2.1 0 0 0-1.005.097s.19-.598-.096-.689" fill="#FFBF9D"/><path d="M154.494 59.652a18 18 0 0 0 1.691-.804 18 18 0 0 0 1.648-.877 18 18 0 0 0-1.691.79q-.848.4-1.648.89m-.766 3.032q.092.044.193.061c.125.032.31.08.536.12q.408.076.822.057a2.4 2.4 0 0 0 .976-.268 4.3 4.3 0 0 0 1.367-1.209c.142-.184.251-.337.324-.444a1 1 0 0 0 .107-.175 7 7 0 0 0-.488.577c-.37.473-.83.87-1.353 1.165-.291.153-.61.245-.938.268a3.8 3.8 0 0 1-.804-.034c-.456-.073-.74-.134-.742-.118" fill="#FF9A6C"/><path d="m148.472 61.766.115-.067.348-.19 1.34-.713-.016.019.611-2.286 1.651-1.608.027-.027.032.019.844.428h-.026l.98-.045h.059v.056a1 1 0 0 1-.104.536.94.94 0 0 1-.394.343c-.347.151-.728.21-1.104.172l.061-.035-.193.41-.075-.089 1.649-.474 1.608-.732c.514-.268 1.176-.503 1.806-.225a.3.3 0 0 1 .169.161.5.5 0 0 1 .04.21q.001.204-.056.401l-.089-.086q.287-.09.587-.126a.92.92 0 0 1 .63.113.27.27 0 0 1 .102.169q.016.09 0 .18-.044.15-.107.297l-.059.142a1 1 0 0 1-.043.08l-.059.067q-.119.11-.249.201-1.023.66-2.107 1.212l-1.048.536-.514.268c-.078.043-.193.09-.204.126-.011.034.029.12.086.174l-.049-.019 1.29-.03-.046.02a8 8 0 0 1 1.238-1.008q.168-.108.354-.18a.62.62 0 0 1 .413-.019.45.45 0 0 1 .297.295.8.8 0 0 1 0 .402v.016l-1.219 1.187.016-.034-.134 1.216v.022l-.016.013-1.188.952h-.018l-3.23.05h.019l-1.916 1.043-.504.268-.129.067q-.044.023-.045.019l.04-.027.126-.075.493-.284 1.9-1.072h.016l3.216-.075h-.029l1.179-.96-.021.038q.063-.587.128-1.214v-.01l.014-.014 1.155-1.182-.016.03c.048-.218 0-.491-.226-.537a.85.85 0 0 0-.661.188 7.7 7.7 0 0 0-1.212.992l-.019.018h-.01l-1.287.035h-.029l-.019-.019a.5.5 0 0 1-.102-.131.2.2 0 0 1-.029-.096.2.2 0 0 1 .013-.1.3.3 0 0 1 .137-.126l.128-.067.515-.268 1.045-.536a24 24 0 0 0 2.091-1.206 2 2 0 0 0 .26-.246.2.2 0 0 0 .026-.054l.062-.142c.07-.177.177-.402.056-.482a.8.8 0 0 0-.536-.083q-.285.03-.557.118l-.123.04.034-.126q.051-.176.051-.36c0-.117-.04-.219-.115-.24a1.45 1.45 0 0 0-.855-.075 3.3 3.3 0 0 0-.828.305l-1.589.724-1.651.469-.134.037.062-.126.195-.407.016-.038h.046c.353.037.71-.017 1.037-.155a.83.83 0 0 0 .356-.33.9.9 0 0 0 .092-.466l.061.054-.981.04h-.016l-.841-.437h.061l-1.661 1.608v-.019l-.638 2.278v.014l-1.362.688-.353.174z" fill="#FF9A6C"/><path d="M141.547 71.821q.08-.052.168-.09l.496-.247 1.876-.895 6.462-3.056-.035.084c-.418-1.142-.869-2.378-1.34-3.656-.327-.906-.649-1.788-.957-2.64l.091.04-6.585 2.766h-.013a6 6 0 0 0-1.579.354c-.381.14-.73.359-1.023.64a1.9 1.9 0 0 0-.434.63c-.033.08-.051.145-.065.188a.2.2 0 0 1-.019.067.2.2 0 0 1 0-.07 1.3 1.3 0 0 1 .054-.196 1.9 1.9 0 0 1 .418-.656 3 3 0 0 1 1.035-.675 6 6 0 0 1 1.608-.378h-.016l6.566-2.801.067-.027.024.067c.311.852.632 1.734.959 2.637.466 1.279.914 2.517 1.34 3.659l.022.058-.057.027-6.48 3.007-1.876.863-.506.225a2 2 0 0 1-.201.075m2.245-17.074a9 9 0 0 1-.436-.788 23 23 0 0 0-1.123-1.854 22 22 0 0 0-1.305-1.732 8 8 0 0 1-.569-.696s.073.048.185.158q.171.165.459.474a15.8 15.8 0 0 1 2.441 3.605c.121.249.214.455.268.603q.058.109.08.23" fill="#263238"/><path d="M144.058 56.06q-.017.174-.075.34c-.059.215-.147.537-.268.904-.228.764-.552 1.814-.922 2.97-.37 1.154-.723 2.197-.989 2.947-.134.373-.244.676-.327.885q-.051.165-.139.316.029-.171.088-.335.114-.357.284-.898c.252-.785.582-1.817.949-2.948.367-1.13.708-2.17.962-2.948l.303-.89q.05-.177.134-.343" fill="#263238"/></svg>