<svg xmlns="http://www.w3.org/2000/svg" width="500" height="329.162" viewBox="0 0 500 329.162"><path d="M326.322 143.726q-0.864 4.545 -2.072 8.996c-0.088 0.345 -0.185 0.684 -0.283 1.029h-11.209a3.606 3.606 0 0 0 -3.601 3.601v31.955q-0.511 0.948 -1.029 1.887a298.75 298.75 0 0 1 -5.525 9.609 365.3 365.3 0 0 1 -125.355 125.282l3.045 -6.873 -3.354 -0.231c-24.305 -1.661 -48.694 -3.502 -72.427 -8.966 -24.83 -5.715 -49.12 -15.628 -68.58 -32.063C16.468 261.514 2.197 238.036 0.217 212.635a74.5 74.5 0 0 1 2.607 -25.931c4.563 -16.214 14.531 -30.802 28.915 -39.434 22.593 -13.555 52.063 -10.793 75.879 0.484 23.811 11.27 43.194 29.928 62.119 48.261a239.875 239.875 0 0 0 -77.629 -81.029c-10.576 -6.77 -21.8 -12.799 -30.793 -21.569 -8.986 -8.765 -15.617 -21.055 -14.027 -33.508 1.805 -14.125 13.375 -24.845 24.964 -33.112a188.75 188.75 0 0 1 14.336 -9.316C100.493 9.334 115.534 3.186 131.419 0.907c21.517 -3.091 44.757 1.6 61.255 15.756 18.585 15.951 26.209 41.676 25.484 66.286 11.45 -16.646 29.11 -29.388 49.054 -29.928 20.705 -0.555 40.386 12.526 50.756 30.457 10.365 17.928 12.227 39.903 8.354 60.246" fill="#e6e6e6"/><path d="M195.326 212.859c12.127 -1.067 23.329 -2.315 35.08 -5.64 11.391 -3.224 22.351 -8.619 30.46 -17.429 8.721 -9.476 13.43 -21.782 16.751 -34.034 1.851 -6.83 3.374 -13.756 4.81 -20.684q2.338 -11.276 4.152 -22.651 3.615 -22.643 5.161 -45.551 0.186 -2.781 0.343 -5.564c0.064 -1.145 -1.715 -1.141 -1.78 0q-1.27 22.582 -4.57 44.988c-2.171 14.676 -4.949 29.289 -8.474 43.701 -2.986 12.21 -6.851 24.611 -14.509 34.775 -7.181 9.531 -17.552 15.76 -28.751 19.484 -11.395 3.79 -23.41 5.303 -35.319 6.428 -1.461 0.139 -1.893 0.27 -3.355 0.399 -1.131 0.1 -1.143 1.88 0 1.78M3.854 188.017a192.875 192.875 0 0 1 45.114 7.95 195 195 0 0 1 42.015 18.288 190.25 190.25 0 0 1 35.38 26.639 195 195 0 0 1 27.637 32.954 192.875 192.875 0 0 1 19.776 38.34q0.94 2.474 1.811 4.974c0.375 1.075 2.095 0.613 1.716 -0.474a194.75 194.75 0 0 0 -18.893 -39.293 197.5 197.5 0 0 0 -27.109 -34.152 192.5 192.5 0 0 0 -34.609 -27.619 196.45 196.45 0 0 0 -87.23 -29q-2.801 -0.235 -5.609 -0.386c-1.145 -0.063 -1.141 1.718 0 1.78" fill="#fff"/><path d="M87.073 19.569a104.875 104.875 0 0 1 27.521 13.449 129.25 129.25 0 0 1 23.494 20.864 173 173 0 0 1 19.455 26.811 228.75 228.75 0 0 1 15.468 31.449 285 285 0 0 1 11.265 34.205 320 320 0 0 1 7.202 35.737 318.75 318.75 0 0 1 3.101 35.941 285 285 0 0 1 -1.019 34.477 220 220 0 0 1 -5.176 31.741 150 150 0 0 1 -9.339 27.446q-1.386 3.005 -2.944 5.926c-0.539 1.011 0.998 1.911 1.538 0.899a137.25 137.25 0 0 0 10.511 -26.456 205 205 0 0 0 6.268 -31.121 270.625 270.625 0 0 0 2.071 -34.407 316.25 316.25 0 0 0 -2.154 -36.156 326.25 326.25 0 0 0 -6.27 -36.127 295 295 0 0 0 -10.484 -35.185 245 245 0 0 0 -14.579 -32.379 187.5 187.5 0 0 0 -18.694 -28.215 139.25 139.25 0 0 0 -22.837 -22.633 110.5 110.5 0 0 0 -26.782 -15.449q-3.521 -1.401 -7.141 -2.535c-1.096 -0.345 -1.564 1.374 -0.474 1.716" fill="#fff"/><path fill="#e6e6e6" d="M319.96 324.019a127.314 5.144 0 0 1 -127.315 5.144 127.314 5.144 0 0 1 -127.314 -5.144 127.314 5.144 0 0 1 254.629 0"/><path d="M305.129 162.903a5.375 5.375 0 0 0 -0.124 0.844l-22.098 12.748 -5.371 -3.091 -5.726 7.496 11.49 8.189 25.21 -19.889a5.399 5.399 0 1 0 -3.382 -6.296" fill="#ffb8b8"/><path d="m254.804 170.725 17.4 12.401 7.781 -9.758 -16.914 -13.571a6.854 6.854 0 0 0 -9.871 1.368 6.854 6.854 0 0 0 1.604 9.559" fill="#ff3a00"/><path fill="#ffb8b8" d="m218.888 312.219 6.101 1.599 9.069 -22.769 -9.004 -2.36z"/><path d="m235.269 322.565 -19.172 -5.024 1.941 -7.408 11.765 3.083a7.658 7.658 0 0 1 5.466 9.349" fill="#2f2e41"/><path fill="#ffb8b8" d="m273.118 316.563 6.208 -1.109 -1.323 -24.474 -9.162 1.638z"/><path d="m292.327 319.08 -19.511 3.485 -1.346 -7.539 11.974 -2.139a7.658 7.658 0 0 1 8.885 6.191m-31.436 -182.501c1.53 0.372 2.775 1.931 3.522 3.738a26.25 26.25 0 0 1 1.391 5.873c0.587 3.733 1.151 7.774 -0.064 11.231 -1.424 4.053 -5.218 6.174 -8.509 5.178s-5.907 -4.741 -6.801 -9.05a21.913 21.913 0 0 1 1.505 -12.904c0.935 -2.127 2.223 -4.091 3.935 -5.051a3.884 3.884 0 0 1 5.179 1.079m8.498 67.494 11.82 105.861 -9.761 3.706 -18.004 -70.987 -25.066 64.906 -10.685 0.594s14.66 -100.994 25.525 -103.289Z" fill="#2f2e41"/><path fill="#ffb8b8" d="M272.255 137.454a12.634 12.634 0 0 1 -12.634 12.634 12.634 12.634 0 0 1 -12.635 -12.634 12.634 12.634 0 0 1 25.269 0"/><path d="m265.043 155.389 -13.652 -1.781s-8.904 10.685 -8.311 29.086 -1.484 24.041 -1.484 24.041l28.468 0.515c-4.115 -5.659 13.098 -38.156 -5.02 -51.863" fill="#ff3a00"/><path d="M272.377 209.822a5.375 5.375 0 0 0 -0.849 0.073l-17.466 -18.594 1.781 -5.936 -8.607 -3.857 -5.343 13.059 25.13 19.99a5.399 5.399 0 1 0 5.355 -4.734" fill="#ffb8b8"/><path d="m253.248 162.623 -8.09 19.775 11.279 5.343 9.34 -19.57a6.854 6.854 0 0 0 -3.59 -9.296 6.854 6.854 0 0 0 -8.939 3.749" fill="#ff3a00"/><path d="M256.316 148.94c1.98 -1.143 2.191 -3.897 1.921 -6.166s-0.717 -4.799 0.616 -6.655c1.593 -2.215 4.791 -2.259 7.518 -2.331s6.046 -0.87 6.754 -3.505c0.466 -1.741 -0.532 -3.609 -1.965 -4.701s-3.226 -1.576 -4.969 -2.035c-3.899 -1.027 -7.925 -2.063 -11.918 -1.499a15.192 15.192 0 0 0 -12.944 16.965c0.646 5.068 1.584 7.28 0.968 9.514 -1.145 4.161 -6.085 6.835 -6.184 11.151 -0.077 3.375 2.905 5.98 5.814 7.694 2.308 1.36 4.798 2.512 7.456 2.831s5.522 -0.291 7.502 -2.094c2.555 -2.325 3.188 -6.208 2.455 -9.584s-2.612 -6.374 -4.471 -9.285" fill="#2f2e41"/><path d="M495.37 152.724h-182.613a4.638 4.638 0 0 0 -4.63 4.63v117.284a4.638 4.638 0 0 0 4.63 4.63h182.613A4.638 4.638 0 0 0 500 274.637v-117.284a4.638 4.638 0 0 0 -4.63 -4.63m3.601 121.912a3.606 3.606 0 0 1 -3.601 3.601h-182.613a3.606 3.606 0 0 1 -3.601 -3.601v-117.284a3.606 3.606 0 0 1 3.601 -3.601h182.613a3.606 3.606 0 0 1 3.601 3.601Z" fill="#3f3d56"/><path d="M351.737 211.105h-28.806a4.375 4.375 0 0 1 -4.373 -4.373v-28.806a4.375 4.375 0 0 1 4.373 -4.373h28.806a4.375 4.375 0 0 1 4.373 4.373v28.806a4.375 4.375 0 0 1 -4.373 4.373" fill="#ff3a00"/><path d="M485.86 241.718H322.28a3.344 3.344 0 1 1 0 -6.688h163.58a3.344 3.344 0 0 1 0 6.688m0.11 -16.204H322.39a3.344 3.344 0 0 1 0 -6.688h163.58a3.344 3.344 0 0 1 0 6.688m-80.761 -22.125h-24.176a3.344 3.344 0 0 1 0 -6.688h24.176a3.344 3.344 0 0 1 0 6.688m80.761 -16.455h-104.938a3.344 3.344 0 0 1 0 -6.688h104.938a3.344 3.344 0 0 1 0 6.688m-84.876 71.244h-78.814a3.344 3.344 0 1 1 0 -6.688h78.814a3.344 3.344 0 1 1 0 6.688" fill="#ccc"/></svg>