<svg xmlns="http://www.w3.org/2000/svg" fill="#f3af4c" width="20" height="20" viewBox="0 0 20 20" xml:space="preserve"><path d="M2.374 17.176a1.318 1.318 0 0 0 1.319 -1.319V8.604a1.318 1.318 0 0 0 -1.319 -1.319H1.319A1.319 1.319 0 0 0 0 8.604v7.253a1.318 1.318 0 0 0 1.319 1.319zm16.171 -9.89H10.061c-0.291 0 -0.448 -0.222 -0.35 -0.497l1.183 -3.314c0.098 -0.274 -0.049 -0.567 -0.338 -0.609 -0.64 -0.093 -1.737 -0.098 -2.478 0.737 -0.193 0.218 -0.418 0.637 -0.582 0.878 -0.747 1.104 -1.83 2.029 -2.42 2.489 -0.23 0.179 -0.423 0.551 -0.423 0.842v8.835a0.527 0.527 0 0 0 0.527 0.528h7.844c0.291 0 0.682 -0.178 0.873 -0.399l0.452 -0.522c0.191 -0.22 0.382 -0.632 0.426 -0.92l0.734 -4.746h3.033c0.804 0 1.456 -0.74 1.456 -1.652s-0.652 -1.652 -1.456 -1.652"/></svg>